<svg width="30" height="31" viewBox="0 0 30 31" fill="none" xmlns="http://www.w3.org/2000/svg">
<g id="vuesax/outline/edit">
<g id="edit">
<path id="Vector" d="M18.75 28.9375H11.25C4.4625 28.9375 1.5625 26.0375 1.5625 19.25V11.75C1.5625 4.9625 4.4625 2.0625 11.25 2.0625H13.75C14.2625 2.0625 14.6875 2.4875 14.6875 3C14.6875 3.5125 14.2625 3.9375 13.75 3.9375H11.25C5.4875 3.9375 3.4375 5.9875 3.4375 11.75V19.25C3.4375 25.0125 5.4875 27.0625 11.25 27.0625H18.75C24.5125 27.0625 26.5625 25.0125 26.5625 19.25V16.75C26.5625 16.2375 26.9875 15.8125 27.5 15.8125C28.0125 15.8125 28.4375 16.2375 28.4375 16.75V19.25C28.4375 26.0375 25.5375 28.9375 18.75 28.9375Z" fill="#F4CE12"/>
<path id="Vector_2" d="M10.6252 22.6125C9.86266 22.6125 9.16266 22.3375 8.65016 21.8375C8.03766 21.225 7.77516 20.3375 7.91266 19.4L8.45016 15.6375C8.55016 14.9124 9.02516 13.975 9.53766 13.4625L19.3877 3.61245C21.8752 1.12495 24.4002 1.12495 26.8877 3.61245C28.2502 4.97495 28.8627 6.36245 28.7377 7.74995C28.6252 8.87495 28.0252 9.97495 26.8877 11.1L17.0377 20.95C16.5252 21.4625 15.5877 21.9375 14.8627 22.0375L11.1002 22.575C10.9377 22.6125 10.7752 22.6125 10.6252 22.6125ZM20.7127 4.93745L10.8627 14.7875C10.6252 15.025 10.3502 15.575 10.3002 15.9L9.76266 19.6625C9.71266 20.025 9.78766 20.325 9.97516 20.5125C10.1627 20.7 10.4627 20.775 10.8252 20.725L14.5877 20.1875C14.9127 20.1375 15.4752 19.8625 15.7002 19.625L25.5502 9.77495C26.3627 8.96245 26.7877 8.23745 26.8502 7.56245C26.9252 6.74995 26.5002 5.88745 25.5502 4.92495C23.5502 2.92495 22.1752 3.48745 20.7127 4.93745Z" fill="#F4CE12"/>
<path id="Vector_3" d="M24.8124 12.7876C24.7249 12.7876 24.6374 12.7751 24.5624 12.7501C21.2749 11.8251 18.6624 9.21259 17.7374 5.92509C17.5999 5.42509 17.8874 4.91259 18.3874 4.76259C18.8874 4.62509 19.3999 4.91259 19.5374 5.41259C20.2874 8.07509 22.3999 10.1876 25.0624 10.9376C25.5624 11.0751 25.8499 11.6001 25.7124 12.1001C25.5999 12.5251 25.2249 12.7876 24.8124 12.7876Z" fill="#F4CE12"/>
</g>
</g>
</svg>
