<svg width="30" height="31" viewBox="0 0 30 31" fill="none" xmlns="http://www.w3.org/2000/svg">
  <g id="vuesax/outline/status-up">
    <g id="status-up">
      <path id="Vector" d="M8.6001 24.1249C8.0876 24.1249 7.6626 23.6999 7.6626 23.1874V20.5999C7.6626 20.0874 8.0876 19.6624 8.6001 19.6624C9.1126 19.6624 9.5376 20.0874 9.5376 20.5999V23.1874C9.5376 23.7124 9.1126 24.1249 8.6001 24.1249Z" fill="#F4CE12"/>
      <path id="Vector_2" d="M15 24.125C14.4875 24.125 14.0625 23.7 14.0625 23.1875V18C14.0625 17.4875 14.4875 17.0625 15 17.0625C15.5125 17.0625 15.9375 17.4875 15.9375 18V23.1875C15.9375 23.7125 15.5125 24.125 15 24.125Z" fill="#F4CE12"/>
      <path id="Vector_3" d="M21.3999 24.1251C20.8874 24.1251 20.4624 23.7001 20.4624 23.1876V15.4126C20.4624 14.9001 20.8874 14.4751 21.3999 14.4751C21.9124 14.4751 22.3374 14.9001 22.3374 15.4126V23.1876C22.3374 23.7126 21.9249 24.1251 21.3999 24.1251Z" fill="#F4CE12"/>
      <path id="Vector_4" d="M8.59997 16.975C8.17497 16.975 7.79997 16.6875 7.68747 16.2625C7.56247 15.7625 7.86247 15.25 8.37497 15.125C12.975 13.975 17.025 11.4625 20.1125 7.87502L20.6875 7.20002C21.025 6.81252 21.6125 6.76252 22.0125 7.10002C22.4 7.43752 22.45 8.02502 22.1125 8.42502L21.5375 9.10002C18.2 13 13.8 15.7125 8.82497 16.95C8.74997 16.975 8.67497 16.975 8.59997 16.975Z" fill="#F4CE12"/>
      <path id="Vector_5" d="M21.4001 12.4C20.8876 12.4 20.4626 11.975 20.4626 11.4625V8.75H17.7375C17.225 8.75 16.8 8.325 16.8 7.8125C16.8 7.3 17.225 6.875 17.7375 6.875H21.4001C21.9126 6.875 22.3376 7.3 22.3376 7.8125V11.475C22.3376 11.9875 21.9251 12.4 21.4001 12.4Z" fill="#F4CE12"/>
      <path id="Vector_6" d="M18.75 28.9375H11.25C4.4625 28.9375 1.5625 26.0375 1.5625 19.25V11.75C1.5625 4.9625 4.4625 2.0625 11.25 2.0625H18.75C25.5375 2.0625 28.4375 4.9625 28.4375 11.75V19.25C28.4375 26.0375 25.5375 28.9375 18.75 28.9375ZM11.25 3.9375C5.4875 3.9375 3.4375 5.9875 3.4375 11.75V19.25C3.4375 25.0125 5.4875 27.0625 11.25 27.0625H18.75C24.5125 27.0625 26.5625 25.0125 26.5625 19.25V11.75C26.5625 5.9875 24.5125 3.9375 18.75 3.9375H11.25Z" fill="#F4CE12"/>
    </g>
  </g>
</svg>