<svg width="30" height="31" viewBox="0 0 30 31" fill="none" xmlns="http://www.w3.org/2000/svg">
<g id="vuesax/outline/presention-chart">
<g id="presention-chart">
<path id="Vector" d="M22.625 22.6875H7.37499C4.47499 22.6875 2.8125 21.025 2.8125 18.125V3C2.8125 2.4875 3.2375 2.0625 3.75 2.0625H26.25C26.7625 2.0625 27.1875 2.4875 27.1875 3V18.125C27.1875 21.025 25.525 22.6875 22.625 22.6875ZM4.6875 3.9375V18.125C4.6875 19.9875 5.51249 20.8125 7.37499 20.8125H22.6125C24.475 20.8125 25.3 19.9875 25.3 18.125V3.9375H4.6875Z" fill="#F4CE12"/>
<path id="Vector_2" d="M27.5 3.9375H2.5C1.9875 3.9375 1.5625 3.5125 1.5625 3C1.5625 2.4875 1.9875 2.0625 2.5 2.0625H27.5C28.0125 2.0625 28.4375 2.4875 28.4375 3C28.4375 3.5125 28.0125 3.9375 27.5 3.9375Z" fill="#F4CE12"/>
<path id="Vector_3" d="M10.0003 28.9375C9.65033 28.9375 9.32532 28.75 9.16282 28.425C8.92532 27.9625 9.11285 27.4 9.58785 27.1625L14.0628 24.925V21.75C14.0628 21.2375 14.4878 20.8125 15.0003 20.8125C15.5128 20.8125 15.9378 21.2375 15.9378 21.75V25.5C15.9378 25.85 15.7378 26.175 15.4128 26.3375L10.4128 28.8375C10.2878 28.9 10.1378 28.9375 10.0003 28.9375Z" fill="#F4CE12"/>
<path id="Vector_4" d="M19.9999 28.9375C19.8624 28.9375 19.7125 28.9 19.5875 28.8375L14.5875 26.3375C14.125 26.1 13.9374 25.5375 14.1624 25.075C14.3999 24.6125 14.9624 24.425 15.4249 24.65L20.4249 27.15C20.8874 27.3875 21.0749 27.95 20.8499 28.4125C20.6749 28.75 20.3374 28.9375 19.9999 28.9375Z" fill="#F4CE12"/>
<path id="Vector_5" d="M9.37515 15.1873C9.11265 15.1873 8.83767 15.0749 8.65017 14.8499C8.31267 14.4499 8.37514 13.8624 8.77514 13.5249L12.7127 10.2374C13.0752 9.93736 13.5376 9.81236 13.9751 9.88736C14.4251 9.96236 14.8127 10.2373 15.0502 10.6373L16.3626 12.8248L20.0251 9.77487C20.4251 9.44987 21.0126 9.49984 21.3501 9.89984C21.6876 10.2998 21.6252 10.8873 21.2252 11.2248L17.2876 14.5123C16.9251 14.8123 16.4627 14.9373 16.0252 14.8623C15.5752 14.7873 15.1876 14.5124 14.9501 14.1124L13.6377 11.9249L9.97517 14.9748C9.80017 15.1123 9.58765 15.1873 9.37515 15.1873Z" fill="#F4CE12"/>
</g>
</g>
</svg>
