<svg width="20" height="21" viewBox="0 0 20 21" fill="none" xmlns="http://www.w3.org/2000/svg">
<g id="Social Icons" clip-path="url(#clip0_2022_812)">
<path id="Vector" d="M18.1598 16.0863C17.8573 16.7851 17.4993 17.4283 17.0845 18.0196C16.5191 18.8257 16.0562 19.3838 15.6994 19.6936C15.1463 20.2022 14.5537 20.4627 13.9192 20.4775C13.4637 20.4775 12.9143 20.3479 12.2748 20.085C11.6332 19.8232 11.0436 19.6936 10.5045 19.6936C9.93908 19.6936 9.33268 19.8232 8.68406 20.085C8.03445 20.3479 7.51113 20.485 7.11102 20.4985C6.50252 20.5245 5.896 20.2566 5.29059 19.6936C4.90418 19.3566 4.42086 18.7788 3.84187 17.9603C3.22065 17.0863 2.70993 16.0727 2.30982 14.9172C1.88131 13.6691 1.6665 12.4605 1.6665 11.2904C1.6665 9.95008 1.95612 8.79407 2.53623 7.82533C2.99214 7.04721 3.59866 6.4334 4.35778 5.9828C5.11689 5.53219 5.93711 5.30257 6.82041 5.28788C7.30373 5.28788 7.93754 5.43738 8.72517 5.7312C9.51057 6.02601 10.0149 6.17551 10.236 6.17551C10.4013 6.17551 10.9615 6.0007 11.9112 5.65219C12.8094 5.32899 13.5674 5.19517 14.1883 5.24788C15.871 5.38368 17.1351 6.04699 17.9759 7.24202C16.471 8.15384 15.7265 9.43096 15.7414 11.0693C15.7549 12.3454 16.2179 13.4074 17.1277 14.2506C17.5401 14.6419 18.0006 14.9444 18.5129 15.1592C18.4018 15.4814 18.2845 15.79 18.1598 16.0863ZM14.3007 0.900358C14.3007 1.90059 13.9352 2.8345 13.2069 3.69892C12.3279 4.72654 11.2647 5.32035 10.1118 5.22665C10.0971 5.10665 10.0886 4.98036 10.0886 4.84765C10.0886 3.88743 10.5066 2.8598 11.2489 2.01958C11.6195 1.59416 12.0909 1.24043 12.6624 0.958257C13.2328 0.68029 13.7723 0.526568 14.2797 0.500244C14.2945 0.633959 14.3007 0.767682 14.3007 0.900345V0.900358Z" fill="#2C2D84"/>
</g>
<defs>
<clipPath id="clip0_2022_812">
<rect width="20" height="20" fill="white" transform="translate(0 0.5)"/>
</clipPath>
</defs>
</svg>
