<svg width="24" height="25" viewBox="0 0 24 25" fill="none" xmlns="http://www.w3.org/2000/svg">
<g id="vuesax/outline/sms-edit">
<g id="sms-edit">
<path id="Vector" d="M12 21.75H7C3.35 21.75 1.25 19.65 1.25 16V9C1.25 5.35 3.35 3.25 7 3.25H17C20.65 3.25 22.75 5.35 22.75 9V12C22.75 12.41 22.41 12.75 22 12.75C21.59 12.75 21.25 12.41 21.25 12V9C21.25 6.14 19.86 4.75 17 4.75H7C4.14 4.75 2.75 6.14 2.75 9V16C2.75 18.86 4.14 20.25 7 20.25H12C12.41 20.25 12.75 20.59 12.75 21C12.75 21.41 12.41 21.75 12 21.75Z" fill="#2C2D84"/>
<path id="Vector_2" d="M11.9998 13.37C11.1598 13.37 10.3098 13.11 9.65978 12.58L6.52978 10.08C6.20978 9.81996 6.14978 9.34997 6.40978 9.02997C6.66978 8.70997 7.13977 8.65997 7.45977 8.90997L10.5898 11.41C11.3498 12.02 12.6398 12.02 13.3998 11.41L16.5298 8.90997C16.8498 8.64997 17.3198 8.69997 17.5798 9.02997C17.8398 9.34997 17.7898 9.82996 17.4598 10.08L14.3298 12.58C13.6898 13.11 12.8398 13.37 11.9998 13.37Z" fill="#2C2D84"/>
<path id="Vector_3" d="M15.8196 22.28C15.4396 22.28 15.0796 22.14 14.8196 21.88C14.5096 21.57 14.3696 21.12 14.4396 20.65L14.6296 19.3C14.6796 18.95 14.8896 18.53 15.1396 18.28L18.6796 14.74C19.1596 14.26 19.6296 14.01 20.1396 13.96C20.7596 13.9 21.3796 14.16 21.9596 14.74C22.5396 15.32 22.7996 15.93 22.7396 16.56C22.6896 17.06 22.4296 17.54 21.9596 18.02L18.4196 21.56C18.1696 21.81 17.7496 22.02 17.3996 22.07L16.0495 22.26C15.9695 22.27 15.8996 22.28 15.8196 22.28ZM20.3096 15.45C20.2996 15.45 20.2896 15.45 20.2796 15.45C20.1396 15.46 19.9496 15.59 19.7396 15.8L16.1996 19.34C16.1696 19.37 16.1196 19.47 16.1196 19.51L15.9396 20.76L17.1896 20.58C17.2296 20.57 17.3295 20.52 17.3595 20.49L20.8996 16.95C21.1096 16.73 21.2396 16.55 21.2496 16.41C21.2696 16.21 21.0696 15.97 20.8996 15.8C20.7396 15.64 20.5096 15.45 20.3096 15.45Z" fill="#2C2D84"/>
<path id="Vector_4" d="M20.9206 18.7499C20.8506 18.7499 20.7806 18.7399 20.7206 18.7199C19.4006 18.3499 18.3506 17.2999 17.9806 15.9799C17.8706 15.5799 18.1006 15.1699 18.5006 15.0499C18.9006 14.9399 19.3106 15.1699 19.4206 15.5699C19.6506 16.3899 20.3006 17.0399 21.1206 17.2699C21.5206 17.3799 21.7506 17.7999 21.6406 18.1999C21.5506 18.5299 21.2506 18.7499 20.9206 18.7499Z" fill="#2C2D84"/>
</g>
</g>
</svg>
