<svg width="21" height="21" viewBox="0 0 21 21" fill="none" xmlns="http://www.w3.org/2000/svg">
<g id="Social Icons" clip-path="url(#clip0_2022_810)">
<path id="c" d="M20.5 10.5C20.5 4.9772 16.0228 0.5 10.5 0.5C4.9772 0.5 0.5 4.9772 0.5 10.5C0.5 15.1896 3.7288 19.1248 8.0844 20.2056V13.556H6.0224V10.5H8.0844V9.1832C8.0844 5.7796 9.6248 4.202 12.9664 4.202C13.6 4.202 14.6932 4.3264 15.1404 4.4504V7.2204C14.9044 7.1956 14.4944 7.1832 13.9852 7.1832C12.3456 7.1832 11.712 7.8044 11.712 9.4192V10.5H14.9784L14.4172 13.556H11.712V20.4268C16.6636 19.8288 20.5004 15.6128 20.5004 10.5H20.5Z" fill="#2C2D84"/>
<path id="d" d="M14.4168 13.556L14.978 10.5H11.7116V9.41923C11.7116 7.80443 12.3452 7.18323 13.9848 7.18323C14.494 7.18323 14.904 7.19563 15.14 7.22043V4.45043C14.6928 4.32603 13.5996 4.20203 12.966 4.20203C9.62437 4.20203 8.08397 5.77963 8.08397 9.18323V10.5H6.02197V13.556H8.08397V20.2056C8.85757 20.3976 9.66677 20.5 10.4996 20.5C10.9096 20.5 11.314 20.4748 11.7112 20.4268V13.556H14.4164H14.4168Z" fill="#F3F3F4"/>
</g>
<defs>
<clipPath id="clip0_2022_810">
<rect width="20" height="20" fill="white" transform="translate(0.5 0.5)"/>
</clipPath>
</defs>
</svg>
