<svg width="21" height="21" viewBox="0 0 21 21" fill="none" xmlns="http://www.w3.org/2000/svg">
<g id="Vector">
<path id="Vector_2" d="M10.7041 8.64471V12.5965H16.1958C15.9546 13.8674 15.231 14.9435 14.1457 15.6671L17.4574 18.2367C19.3869 16.4557 20.5001 13.8397 20.5001 10.732C20.5001 10.0085 20.4351 9.31267 20.3145 8.64483L10.7041 8.64471Z" fill="#4285F4"/>
<path id="Vector_3" d="M4.9855 12.4423L4.23858 13.014L1.59473 15.0734C3.27377 18.4036 6.71511 20.7042 10.704 20.7042C13.4591 20.7042 15.7689 19.7951 17.4572 18.2367L14.1455 15.6671C13.2364 16.2793 12.0769 16.6504 10.704 16.6504C8.05092 16.6504 5.79679 14.8601 4.98967 12.4482L4.9855 12.4423Z" fill="#34A853"/>
<path id="Vector_4" d="M1.59455 5.9267C0.898849 7.29957 0.5 8.84877 0.5 10.5C0.5 12.1512 0.898849 13.7004 1.59455 15.0732C1.59455 15.0825 4.98982 12.4387 4.98982 12.4387C4.78574 11.8265 4.66511 11.1771 4.66511 10.4999C4.66511 9.82258 4.78574 9.17327 4.98982 8.56102L1.59455 5.9267Z" fill="#FBBC05"/>
<path id="Vector_5" d="M10.7042 4.35896C12.207 4.35896 13.5428 4.87843 14.6096 5.88031L17.5317 2.95824C15.7599 1.30704 13.4594 0.295837 10.7042 0.295837C6.71532 0.295837 3.27378 2.58714 1.59473 5.9267L4.98989 8.56124C5.7969 6.14932 8.05113 4.35896 10.7042 4.35896Z" fill="#EA4335"/>
</g>
</svg>
