<svg width="15" height="25" viewBox="0 0 15 25" fill="none" xmlns="http://www.w3.org/2000/svg">
<g id="Group 84">
<path id="Vector" d="M11.6639 24.6001C11.7682 24.7044 11.8921 24.7872 12.0284 24.8437C12.1648 24.9002 12.3109 24.9293 12.4585 24.9293C12.606 24.9293 12.7521 24.9002 12.8885 24.8437C13.0248 24.7872 13.1487 24.7044 13.253 24.6001L14.6708 23.1823C14.7752 23.0779 14.858 22.9541 14.9144 22.8177C14.9709 22.6814 15 22.5353 15 22.3877C15 22.2401 14.9709 22.094 14.9144 21.9577C14.858 21.8214 14.7752 21.6975 14.6708 21.5932L5.54226 12.4646L14.6708 3.3361C14.7752 3.23178 14.858 3.10791 14.9144 2.97158C14.9709 2.83524 15 2.68912 15 2.54155C15 2.39398 14.9709 2.24785 14.9144 2.11152C14.858 1.97519 14.7752 1.85132 14.6708 1.74699L13.253 0.32921C13.1487 0.22484 13.0248 0.142047 12.8885 0.0855605C12.7521 0.0290738 12.606 0 12.4585 0C12.3109 0 12.1648 0.0290738 12.0284 0.0855605C11.8921 0.142047 11.7682 0.22484 11.6639 0.32921L0.328928 11.6642C0.118315 11.8749 0 12.1606 0 12.4585C0 12.7563 0.118315 13.0421 0.328928 13.2527L11.6639 24.6001Z" fill="white"/>
</g>
</svg>
