<svg width="69" height="69" viewBox="0 0 69 69" fill="none" xmlns="http://www.w3.org/2000/svg">
<g id="Group 111" filter="url(#filter0_d_4083_1013)">
<path id="Vector" d="M34.6681 56.2168C49.2109 56.2168 61.0002 44.5894 61.0002 30.2463C61.0002 15.9033 49.2109 4.27588 34.6681 4.27588C20.1252 4.27588 8.33594 15.9033 8.33594 30.2463C8.33594 44.5894 20.1252 56.2168 34.6681 56.2168Z" fill="#2C2D84"/>
<g id="Group 110">
<path id="Vector_2" d="M25.8027 26.9096C25.3473 26.913 24.8931 26.956 24.4454 27.0383C24.7332 24.4027 25.1865 21.7873 25.8027 19.207C25.8027 19.207 17.805 28.655 18.2748 34.3393C18.2748 35.809 18.7168 37.2456 19.5447 38.4676C20.3727 39.6895 21.5496 40.6418 22.9264 41.204C24.3032 41.7661 25.8181 41.913 27.2795 41.6259C28.741 41.3388 30.0832 40.6306 31.1366 39.5911C32.1899 38.5515 32.9069 37.2272 33.197 35.7856C33.4871 34.344 33.3372 32.85 32.7662 31.4925C32.1952 30.135 31.2289 28.975 29.9894 28.1593C28.7498 27.3435 27.2929 26.9086 25.8027 26.9096Z" fill="white"/>
<path id="Vector_3" d="M43.7977 26.9096C43.3406 26.9132 42.8847 26.9563 42.4352 27.0383C42.7249 24.4026 43.18 21.7872 43.7977 19.207C43.7977 19.207 35.7999 28.655 36.2854 34.3393C36.2854 35.8088 36.7272 37.2452 37.555 38.467C38.3827 39.6888 39.5593 40.6411 40.9358 41.2035C42.3123 41.7658 43.8269 41.9129 45.2882 41.6263C46.7495 41.3396 48.0918 40.632 49.1453 39.5929C50.1988 38.5538 50.9163 37.23 51.207 35.7888C51.4976 34.3476 51.3485 32.8537 50.7783 31.4961C50.2081 30.1385 49.2426 28.9781 48.0038 28.1617C46.765 27.3453 45.3085 26.9096 43.8186 26.9096H43.7977Z" fill="white"/>
</g>
</g>
<defs>
<filter id="filter0_d_4083_1013" x="0.335938" y="0.275879" width="68.6641" height="67.9409" filterUnits="userSpaceOnUse" color-interpolation-filters="sRGB">
<feFlood flood-opacity="0" result="BackgroundImageFix"/>
<feColorMatrix in="SourceAlpha" type="matrix" values="0 0 0 0 0 0 0 0 0 0 0 0 0 0 0 0 0 0 127 0" result="hardAlpha"/>
<feOffset dy="4"/>
<feGaussianBlur stdDeviation="4"/>
<feComposite in2="hardAlpha" operator="out"/>
<feColorMatrix type="matrix" values="0 0 0 0 0.172549 0 0 0 0 0.176471 0 0 0 0 0.517647 0 0 0 0.4 0"/>
<feBlend mode="normal" in2="BackgroundImageFix" result="effect1_dropShadow_4083_1013"/>
<feBlend mode="normal" in="SourceGraphic" in2="effect1_dropShadow_4083_1013" result="shape"/>
</filter>
</defs>
</svg>
