<svg width="15" height="25" viewBox="0 0 15 25" fill="none" xmlns="http://www.w3.org/2000/svg">
<g id="Group 84">
<path id="Vector" d="M3.3361 0.399946C3.23178 0.295576 3.10791 0.212782 2.97158 0.156296C2.83524 0.0998096 2.68912 0.0707359 2.54155 0.0707359C2.39398 0.0707359 2.24785 0.0998096 2.11152 0.156296C1.97519 0.212782 1.85132 0.295576 1.74699 0.399946L0.32921 1.81773C0.22484 1.92206 0.142047 2.04593 0.0855602 2.18226C0.0290735 2.31859 0 2.46471 0 2.61229C0 2.75986 0.0290735 2.90598 0.0855602 3.04231C0.142047 3.17864 0.22484 3.30251 0.32921 3.40684L9.45774 12.5354L0.32921 21.6639C0.22484 21.7682 0.142047 21.8921 0.0855602 22.0284C0.0290735 22.1648 0 22.3109 0 22.4585C0 22.606 0.0290735 22.7521 0.0855602 22.8885C0.142047 23.0248 0.22484 23.1487 0.32921 23.253L1.74699 24.6708C1.85132 24.7752 1.97519 24.858 2.11152 24.9144C2.24785 24.9709 2.39398 25 2.54155 25C2.68912 25 2.83524 24.9709 2.97158 24.9144C3.10791 24.858 3.23178 24.7752 3.3361 24.6708L14.6711 13.3358C14.8817 13.1251 15 12.8394 15 12.5415C15 12.2437 14.8817 11.9579 14.6711 11.7473L3.3361 0.399946Z" fill="white"/>
</g>
</svg>
