<svg width="40" height="40" viewBox="0 0 40 40" fill="none" xmlns="http://www.w3.org/2000/svg">
<g id="Social Icons" clip-path="url(#clip0_4083_1259)">
<path id="Vector" d="M36.3199 31.1726C35.7149 32.5701 34.9989 33.8565 34.1693 35.0392C33.0385 36.6515 32.1126 37.7675 31.399 38.3872C30.2929 39.4045 29.1077 39.9255 27.8386 39.9551C26.9276 39.9551 25.8288 39.6958 24.5499 39.1699C23.2667 38.6465 22.0875 38.3872 21.0092 38.3872C19.8784 38.3872 18.6656 38.6465 17.3684 39.1699C16.0691 39.6958 15.0225 39.9699 14.2223 39.9971C13.0053 40.0489 11.7922 39.5131 10.5814 38.3872C9.8086 37.7132 8.84197 36.5577 7.68398 34.9207C6.44155 33.1726 5.4201 31.1455 4.61988 28.8344C3.76287 26.3382 3.33325 23.921 3.33325 21.5808C3.33325 18.9002 3.91249 16.5881 5.0727 14.6507C5.98453 13.0944 7.19757 11.8668 8.7158 10.9656C10.234 10.0644 11.8745 9.60514 13.6411 9.57576C14.6077 9.57576 15.8753 9.87477 17.4506 10.4624C19.0214 11.052 20.03 11.351 20.4722 11.351C20.8028 11.351 21.9233 11.0014 23.8227 10.3044C25.619 9.65798 27.135 9.39034 28.3769 9.49576C31.7422 9.76736 34.2705 11.094 35.952 13.484C32.9422 15.3077 31.4533 17.8619 31.483 21.1386C31.5101 23.6909 32.436 25.8148 34.2557 27.5011C35.0804 28.2838 36.0013 28.8888 37.026 29.3184C36.8038 29.9628 36.5692 30.5801 36.3199 31.1726ZM28.6016 0.800716C28.6016 2.80117 27.8707 4.66899 26.414 6.39783C24.656 8.45308 22.5297 9.6407 20.2238 9.4533C20.1944 9.2133 20.1774 8.96072 20.1774 8.69529C20.1774 6.77486 21.0134 4.71961 22.4981 3.03917C23.2393 2.18833 24.182 1.48087 25.3251 0.916514C26.4658 0.36058 27.5448 0.0531367 28.5596 0.000488281C28.5892 0.267918 28.6016 0.535365 28.6016 0.80069V0.800716Z" fill="black"/>
</g>
<defs>
<clipPath id="clip0_4083_1259">
<rect width="40" height="40" fill="white"/>
</clipPath>
</defs>
</svg>
