<svg width="30" height="30" viewBox="0 0 30 30" fill="none" xmlns="http://www.w3.org/2000/svg">
<g id="vuesax/outline/book-saved">
<g id="book-saved">
<path id="Vector" d="M14.9997 27.6C14.6247 27.6 14.2497 27.5125 13.9372 27.3375C11.5997 26.0625 7.4997 24.7125 4.9247 24.375L4.56223 24.325C2.92473 24.125 1.57471 22.5875 1.57471 20.925V5.82498C1.57471 4.83748 1.96221 3.93752 2.67471 3.28752C3.38721 2.63752 4.31217 2.32501 5.28717 2.41251C8.02467 2.63751 12.1747 4.01252 14.5247 5.47502L14.8247 5.65004C14.9122 5.68754 15.0997 5.70004 15.1747 5.65004L15.3747 5.525C16.2122 5 17.2622 4.48748 18.4122 4.02498C18.6997 3.91248 19.0247 3.95 19.2872 4.125C19.5497 4.3 19.6997 4.5875 19.6997 4.9V8.24999L20.7372 7.5625C21.0497 7.35 21.4622 7.35 21.7747 7.5625L22.8122 8.24999V3.47505C22.8122 3.02505 23.1372 2.63749 23.5747 2.54999C23.9372 2.48749 24.2997 2.43751 24.6247 2.41251C24.6497 2.41251 24.7497 2.41251 24.7747 2.41251C25.6872 2.33751 26.6247 2.65004 27.3247 3.30004C28.0372 3.95004 28.4247 4.85 28.4247 5.8375V20.925C28.4247 22.6 27.0747 24.125 25.4247 24.325L25.0122 24.375C22.4372 24.7125 18.3122 26.075 16.0247 27.3375C15.7497 27.5125 15.3747 27.6 14.9997 27.6ZM4.97467 4.26248C4.57467 4.26248 4.21221 4.39999 3.92471 4.66249C3.61221 4.94999 3.43719 5.36248 3.43719 5.82498V20.925C3.43719 21.6625 4.07472 22.375 4.78722 22.475L5.1622 22.525C7.9747 22.9 12.2872 24.3125 14.7872 25.6875C14.8997 25.7375 15.0622 25.75 15.1247 25.725C17.6372 24.3375 21.9622 22.9126 24.7872 22.5376L25.2122 22.4875C25.9247 22.4 26.5622 21.675 26.5622 20.9375V5.85001C26.5622 5.38751 26.3872 4.98752 26.0747 4.68752C25.7622 4.40002 25.3247 4.26251 24.8747 4.28751C24.8372 4.28751 24.7247 4.28751 24.6997 4.28751V10C24.6997 10.35 24.5122 10.6625 24.1997 10.825C23.8872 10.9875 23.5247 10.975 23.2372 10.775L21.2622 9.46253L19.2872 10.775C18.9997 10.9625 18.6372 10.9875 18.3247 10.825C18.0247 10.6625 17.8247 10.35 17.8247 10V6.33753C17.2872 6.60003 16.7997 6.86252 16.3747 7.11252L16.1747 7.23749C15.4872 7.66249 14.5122 7.6625 13.8497 7.25L13.5497 7.06255C11.4372 5.73755 7.58718 4.46248 5.13718 4.26248C5.07468 4.26248 5.02467 4.26248 4.97467 4.26248Z" fill="#F6F6FC"/>
<path id="Vector_2" d="M15 26.55C14.4875 26.55 14.0625 26.125 14.0625 25.6125V6.86255C14.0625 6.35005 14.4875 5.92505 15 5.92505C15.5125 5.92505 15.9375 6.35005 15.9375 6.86255V25.6125C15.9375 26.1375 15.5125 26.55 15 26.55Z" fill="#F6F6FC"/>
<path id="Vector_3" d="M23.75 10.9375C23.5625 10.9375 23.3875 10.8875 23.225 10.775L21.25 9.46249L19.275 10.775C18.9875 10.9625 18.625 10.9875 18.3125 10.825C18.0125 10.6625 17.8125 10.35 17.8125 9.99999V4.89996C17.8125 4.51246 18.05 4.17495 18.4 4.02495C20.125 3.33745 22.0125 2.79996 23.6 2.54996C23.875 2.49996 24.15 2.58751 24.3625 2.76251C24.575 2.93751 24.6875 3.20002 24.6875 3.47502V9.99999C24.6875 10.35 24.5 10.6625 24.1875 10.825C24.05 10.9 23.9 10.9375 23.75 10.9375ZM21.25 7.39996C21.425 7.39996 21.6125 7.44997 21.775 7.56247L22.8125 8.24996V4.61249C21.8125 4.83749 20.725 5.16249 19.6875 5.54999V8.24996L20.725 7.56247C20.8875 7.44997 21.075 7.39996 21.25 7.39996Z" fill="#F6F6FC"/>
</g>
</g>
</svg>
