<svg width="58" height="40" viewBox="0 0 58 40" fill="none" xmlns="http://www.w3.org/2000/svg">
<g id="Visa">
<rect id="Rectangle" x="0.5" y="0.5" width="57" height="39" rx="3.5" fill="white" stroke="#F3F3F3"/>
<path id="polygon9" d="M25.7519 27.4333H21.8904L24.3056 13.4326H28.1669L25.7519 27.4333Z" fill="#15195A"/>
<path id="path11" d="M39.7497 13.7748C38.988 13.4915 37.78 13.1787 36.2862 13.1787C32.4729 13.1787 29.7875 15.0851 29.7711 17.8106C29.7394 19.8215 31.6937 20.9385 33.1553 21.609C34.6493 22.2941 35.1571 22.7413 35.1571 23.352C35.1419 24.29 33.9499 24.7223 32.8382 24.7223C31.2965 24.7223 30.4704 24.4994 29.2151 23.9776L28.7066 23.7539L28.1663 26.8967C29.0719 27.2836 30.7405 27.6268 32.4729 27.6419C36.5246 27.6419 39.1624 25.765 39.1937 22.8605C39.2091 21.2667 38.1772 20.0454 35.9524 19.0475C34.6018 18.4069 33.7747 17.9749 33.7747 17.3195C33.7905 16.7236 34.4742 16.1133 35.9988 16.1133C37.2542 16.0834 38.1765 16.3663 38.8752 16.6494L39.2245 16.7981L39.7497 13.7748Z" fill="#15195A"/>
<path id="path13" fill-rule="evenodd" clip-rule="evenodd" d="M46.662 13.4326H49.6488L52.7641 27.4331H49.1887C49.1887 27.4331 48.8388 25.8245 48.728 25.3329H43.7701C43.6268 25.7051 42.9597 27.4331 42.9597 27.4331H38.908L44.6437 14.5943C45.0411 13.6856 45.7409 13.4326 46.662 13.4326ZM46.4241 18.5561C46.4241 18.5561 45.2004 21.669 44.8824 22.4734H48.092C47.9332 21.7734 47.202 18.4221 47.202 18.4221L46.9321 17.2157C46.8185 17.5263 46.6541 17.9534 46.5433 18.2415C46.4681 18.4368 46.4176 18.5682 46.4241 18.5561Z" fill="#15195A"/>
<path id="Combined Shape" fill-rule="evenodd" clip-rule="evenodd" d="M5.15902 13.4326H11.3718C12.2139 13.4621 12.8972 13.7153 13.1195 14.6095L14.4696 21.0416C14.4698 21.0422 14.47 21.0429 14.4702 21.0435L14.8834 22.9798L18.6651 13.4326H22.7483L16.6787 27.4185H12.5953L9.15357 15.2531C7.96606 14.6023 6.61076 14.0788 5.09546 13.7155L5.15902 13.4326Z" fill="#15195A"/>
</g>
</svg>
