<svg width="58" height="40" viewBox="0 0 58 40" fill="none" xmlns="http://www.w3.org/2000/svg">
<g id="Paypal">
<rect id="Rectangle" x="0.5" y="0.5" width="57" height="39" rx="3.5" fill="white" stroke="#F3F3F3"/>
<path id="Fill 7" fill-rule="evenodd" clip-rule="evenodd" d="M26.4386 20.2562L26.6911 18.6477L26.1286 18.6346H23.4426L25.3093 6.76505C25.3151 6.72911 25.3339 6.69575 25.3613 6.67201C25.3889 6.64827 25.4241 6.63525 25.4609 6.63525H29.9898C31.4935 6.63525 32.5311 6.94897 33.0727 7.56826C33.3267 7.85879 33.4885 8.16246 33.5668 8.49653C33.6489 8.84713 33.6502 9.26596 33.5702 9.77689L33.5644 9.81405V10.1415L33.8184 10.2858C34.0322 10.3996 34.2022 10.5298 34.3326 10.6788C34.5498 10.9273 34.6903 11.2431 34.7497 11.6173C34.8111 12.0022 34.7908 12.4604 34.6903 12.979C34.5744 13.5755 34.3871 14.0951 34.134 14.5202C33.9014 14.9119 33.6049 15.2369 33.2529 15.4886C32.9168 15.7279 32.5176 15.9095 32.0661 16.0257C31.6286 16.1399 31.1298 16.1975 30.5828 16.1975H30.2303C29.9783 16.1975 29.7335 16.2886 29.5414 16.4517C29.3486 16.6183 29.2212 16.8459 29.1822 17.0947L29.1555 17.2396L28.7093 20.0747L28.6892 20.1787C28.6838 20.2117 28.6746 20.2281 28.6611 20.2392C28.649 20.2494 28.6317 20.2562 28.6148 20.2562H26.4386Z" fill="#28356A"/>
<path id="Fill 8" fill-rule="evenodd" clip-rule="evenodd" d="M34.0591 9.85205C34.0457 9.93872 34.0301 10.0273 34.0128 10.1183C33.4156 13.1936 31.3722 14.256 28.7625 14.256H27.4337C27.1145 14.256 26.8455 14.4883 26.7959 14.8041L25.9229 20.3575C25.8906 20.5649 26.0499 20.7517 26.2584 20.7517H28.6152C28.8942 20.7517 29.1313 20.5484 29.1753 20.2723L29.1984 20.1523L29.6421 17.3283L29.6707 17.1734C29.7141 16.8965 29.9517 16.693 30.2307 16.693H30.5832C32.8665 16.693 34.654 15.7634 35.1765 13.073C35.3946 11.9492 35.2817 11.0108 34.7042 10.3508C34.5295 10.1518 34.3127 9.9866 34.0591 9.85205Z" fill="#298FC2"/>
<path id="Fill 9" fill-rule="evenodd" clip-rule="evenodd" d="M33.4344 9.60218C33.3431 9.57546 33.249 9.55132 33.1524 9.52948C33.0553 9.50819 32.9559 9.48934 32.8535 9.47279C32.4953 9.41474 32.1026 9.38721 31.6822 9.38721H28.1324C28.0449 9.38721 27.9618 9.40701 27.8876 9.44282C27.7238 9.52175 27.6022 9.67719 27.5727 9.86748L26.8175 14.6642L26.7959 14.8041C26.8455 14.4883 27.1145 14.256 27.4337 14.256H28.7625C31.3722 14.256 33.4156 13.193 34.0128 10.1183C34.0307 10.0273 34.0457 9.93868 34.0591 9.85202C33.908 9.77159 33.7444 9.70282 33.5682 9.64423C33.5246 9.62972 33.4797 9.61575 33.4344 9.60218Z" fill="#22284F"/>
<path id="Fill 11" fill-rule="evenodd" clip-rule="evenodd" d="M27.5726 9.86713C27.6021 9.67684 27.7237 9.5214 27.8875 9.44301C27.9623 9.40707 28.0448 9.38726 28.1323 9.38726H31.6821C32.1025 9.38726 32.4952 9.41493 32.8534 9.47298C32.9558 9.48939 33.0552 9.50838 33.1523 9.52968C33.2489 9.55138 33.343 9.57566 33.4343 9.60224C33.4796 9.6158 33.5245 9.62991 33.5685 9.64388C33.7447 9.70247 33.9085 9.77178 34.0595 9.85167C34.2372 8.71521 34.058 7.94143 33.4454 7.24076C32.7698 6.46929 31.5507 6.13916 29.9907 6.13916H25.4616C25.143 6.13916 24.8711 6.3715 24.8219 6.68779L22.9355 18.6794C22.8983 18.9166 23.0807 19.1306 23.3193 19.1306H26.1154L27.5726 9.86713Z" fill="#28356A"/>
<path id="Fill 1" fill-rule="evenodd" clip-rule="evenodd" d="M13.0946 23.521H9.79248C9.56648 23.521 9.3743 23.6857 9.339 23.9094L8.00345 32.4011C7.97695 32.5687 8.10638 32.7197 8.27584 32.7197H9.85225C10.0782 32.7197 10.2704 32.5551 10.3057 32.3309L10.6659 30.0405C10.7006 29.8163 10.8932 29.6517 11.1188 29.6517H12.1641C14.3393 29.6517 15.5946 28.5961 15.9226 26.5043C16.0703 25.5891 15.9288 24.8701 15.5014 24.3665C15.0321 23.8136 14.1997 23.521 13.0946 23.521ZM13.4754 26.6225C13.2948 27.8107 12.3895 27.8107 11.5142 27.8107H11.0158L11.3654 25.5915C11.3863 25.4574 11.502 25.3587 11.6373 25.3587H11.8657C12.462 25.3587 13.0245 25.3587 13.3151 25.6995C13.4885 25.9028 13.5415 26.205 13.4754 26.6225Z" fill="#28356A"/>
<path id="Fill 2" fill-rule="evenodd" clip-rule="evenodd" d="M23.0494 26.5198H21.4682C21.3335 26.5198 21.217 26.6185 21.1963 26.7527L21.1263 27.1962L21.0158 27.0355C20.6735 26.5372 19.91 26.3706 19.1482 26.3706C17.4007 26.3706 15.9082 27.6979 15.6176 29.5597C15.4665 30.4884 15.6813 31.3765 16.2067 31.9958C16.6886 32.5652 17.3781 32.8025 18.1983 32.8025C19.6064 32.8025 20.387 31.8946 20.387 31.8946L20.3165 32.3353C20.29 32.5037 20.4195 32.6548 20.588 32.6548H22.0123C22.2388 32.6548 22.43 32.4902 22.4657 32.266L23.3203 26.8384C23.3474 26.6713 23.2184 26.5198 23.0494 26.5198ZM20.8452 29.6062C20.6927 30.5121 19.9757 31.1203 19.0612 31.1203C18.602 31.1203 18.2351 30.9726 17.9994 30.6928C17.7657 30.4149 17.677 30.0192 17.7512 29.5786C17.8938 28.6804 18.6227 28.0523 19.5233 28.0523C19.9723 28.0523 20.3374 28.202 20.5778 28.4842C20.8187 28.7694 20.9143 29.1675 20.8452 29.6062Z" fill="#28356A"/>
<path id="Fill 3" fill-rule="evenodd" clip-rule="evenodd" d="M31.3497 26.6558H29.7606C29.6089 26.6558 29.4665 26.7313 29.3807 26.8577L27.189 30.0951L26.26 26.984C26.2016 26.7894 26.0225 26.6558 25.8197 26.6558H24.2582C24.0684 26.6558 23.9366 26.8417 23.997 27.0209L25.7473 32.1719L24.1018 34.5015C23.9723 34.685 24.1027 34.9373 24.3263 34.9373H25.9134C26.064 34.9373 26.205 34.8636 26.2904 34.7398L31.5755 27.0891C31.7021 26.9061 31.5722 26.6558 31.3497 26.6558Z" fill="#28356A"/>
<path id="Fill 4" fill-rule="evenodd" clip-rule="evenodd" d="M36.647 23.521H33.3444C33.119 23.521 32.9268 23.6857 32.8915 23.9094L31.5559 32.4011C31.5294 32.5687 31.6589 32.7197 31.8274 32.7197H33.5221C33.6794 32.7197 33.8141 32.6045 33.8387 32.4476L34.2178 30.0405C34.2526 29.8163 34.4453 29.6517 34.6708 29.6517H35.7157C37.8912 29.6517 39.1462 28.5961 39.4745 26.5043C39.6228 25.5891 39.4804 24.8701 39.053 24.3665C38.5841 23.8136 37.7522 23.521 36.647 23.521ZM37.028 26.6225C36.8479 27.8107 35.9425 27.8107 35.0667 27.8107H34.569L34.919 25.5915C34.9397 25.4574 35.0546 25.3587 35.1903 25.3587H35.4187C36.0145 25.3587 36.5775 25.3587 36.8681 25.6995C37.0415 25.9028 37.0941 26.205 37.028 26.6225Z" fill="#298FC2"/>
<path id="Fill 5" fill-rule="evenodd" clip-rule="evenodd" d="M46.5998 26.5198H45.0195C44.8838 26.5198 44.7685 26.6185 44.7482 26.7527L44.6781 27.1962L44.5671 27.0355C44.2248 26.5372 43.4619 26.3706 42.6999 26.3706C40.9525 26.3706 39.4606 27.6979 39.17 29.5597C39.0193 30.4884 39.2331 31.3765 39.7584 31.9958C40.2414 32.5652 40.9298 32.8025 41.7502 32.8025C43.1581 32.8025 43.9389 31.8946 43.9389 31.8946L43.8684 32.3353C43.8419 32.5037 43.9712 32.6548 44.1408 32.6548H45.5646C45.7901 32.6548 45.9823 32.4902 46.0176 32.266L46.8726 26.8384C46.8987 26.6713 46.7693 26.5198 46.5998 26.5198ZM44.3956 29.6062C44.244 30.5121 43.526 31.1203 42.6115 31.1203C42.1533 31.1203 41.7854 30.9726 41.5497 30.6928C41.3161 30.4149 41.2282 30.0192 41.3015 29.5786C41.445 28.6804 42.173 28.0523 43.0736 28.0523C43.5226 28.0523 43.8877 28.202 44.1281 28.4842C44.3699 28.7694 44.4656 29.1675 44.3956 29.6062Z" fill="#298FC2"/>
<path id="Fill 6" fill-rule="evenodd" clip-rule="evenodd" d="M48.3324 23.7544L46.9771 32.4015C46.9506 32.5691 47.0799 32.7201 47.2484 32.7201H48.611C48.8375 32.7201 49.0296 32.5555 49.0643 32.3313L50.4008 23.8401C50.4275 23.6725 50.298 23.521 50.1295 23.521H48.6038C48.4691 23.5214 48.3532 23.6203 48.3324 23.7544Z" fill="#298FC2"/>
</g>
</svg>
