<svg width="58" height="40" viewBox="0 0 58 40" fill="none" xmlns="http://www.w3.org/2000/svg">
<rect x="0.5" y="0.5" width="57" height="39" rx="3.5" fill="white" stroke="#F3F3F3"/>
<path fill-rule="evenodd" clip-rule="evenodd" d="M21.249 30.8905V32.3673V33.8442H20.6018V33.4856C20.3964 33.7515 20.0849 33.9185 19.6615 33.9185C18.8267 33.9185 18.1723 33.2699 18.1723 32.3673C18.1723 31.4655 18.8267 30.8162 19.6615 30.8162C20.0849 30.8162 20.3964 30.9831 20.6018 31.2491V30.8905H21.249ZM19.742 31.4216C19.1817 31.4216 18.8388 31.8481 18.8388 32.3673C18.8388 32.8865 19.1817 33.313 19.742 33.313C20.2774 33.313 20.6388 32.9049 20.6388 32.3673C20.6388 31.8298 20.2774 31.4216 19.742 31.4216ZM43.1229 32.3673C43.1229 31.8481 43.4658 31.4216 44.0261 31.4216C44.5622 31.4216 44.9229 31.8298 44.9229 32.3673C44.9229 32.9049 44.5622 33.313 44.0261 33.313C43.4658 33.313 43.1229 32.8865 43.1229 32.3673ZM45.5339 29.7043V32.3673V33.8442H44.8859V33.4856C44.6806 33.7515 44.369 33.9185 43.9456 33.9185C43.1108 33.9185 42.4564 33.2699 42.4564 32.3673C42.4564 31.4655 43.1108 30.8162 43.9456 30.8162C44.369 30.8162 44.6806 30.9831 44.8859 31.2491V29.7043H45.5339ZM29.2839 31.3912C29.7009 31.3912 29.9689 31.6508 30.0374 32.1077H28.4926C28.5617 31.6812 28.8226 31.3912 29.2839 31.3912ZM27.8139 32.3673C27.8139 31.4464 28.4241 30.8162 29.2967 30.8162C30.1307 30.8162 30.7039 31.4464 30.7103 32.3673C30.7103 32.4536 30.7039 32.5342 30.6975 32.6142H28.4869C28.5802 33.1461 28.9602 33.3378 29.3772 33.3378C29.6759 33.3378 29.9939 33.226 30.2434 33.0287L30.5606 33.5047C30.1992 33.8074 29.7886 33.9185 29.3402 33.9185C28.4491 33.9185 27.8139 33.3066 27.8139 32.3673ZM37.1127 32.3673C37.1127 31.8481 37.4556 31.4216 38.0159 31.4216C38.5513 31.4216 38.9127 31.8298 38.9127 32.3673C38.9127 32.9049 38.5513 33.313 38.0159 33.313C37.4556 33.313 37.1127 32.8865 37.1127 32.3673ZM39.5229 30.8905V32.3673V33.8442H38.8756V33.4856C38.6696 33.7515 38.3588 33.9185 37.9353 33.9185C37.1006 33.9185 36.4461 33.2699 36.4461 32.3673C36.4461 31.4655 37.1006 30.8162 37.9353 30.8162C38.3588 30.8162 38.6696 30.9831 38.8756 31.2491V30.8905H39.5229ZM33.457 32.3673C33.457 33.2635 34.0858 33.9185 35.0453 33.9185C35.4937 33.9185 35.7924 33.8194 36.116 33.5662L35.8052 33.047C35.5621 33.2203 35.3069 33.313 35.026 33.313C34.5092 33.3066 34.1292 32.936 34.1292 32.3673C34.1292 31.7986 34.5092 31.428 35.026 31.4216C35.3069 31.4216 35.5621 31.5143 35.8052 31.6876L36.116 31.1684C35.7924 30.9152 35.4937 30.8162 35.0453 30.8162C34.0858 30.8162 33.457 31.4712 33.457 32.3673ZM41.0177 31.2491C41.1859 30.9895 41.429 30.8162 41.8026 30.8162C41.9337 30.8162 42.1205 30.8409 42.2638 30.8968L42.0642 31.5023C41.9273 31.4464 41.7904 31.428 41.6593 31.428C41.2358 31.428 41.0241 31.6996 41.0241 32.1884V33.8442H40.3761V30.8905H41.0177V31.2491ZM24.4505 31.1253C24.139 30.9216 23.7098 30.8162 23.2365 30.8162C22.4823 30.8162 21.9968 31.1748 21.9968 31.7619C21.9968 32.2435 22.3582 32.5406 23.024 32.6333L23.3299 32.6764C23.6849 32.7259 23.8524 32.8186 23.8524 32.9855C23.8524 33.214 23.6157 33.3441 23.1737 33.3441C22.7254 33.3441 22.4017 33.2019 22.1836 33.035L21.8785 33.5351C22.2335 33.7947 22.6819 33.9185 23.1673 33.9185C24.0271 33.9185 24.5254 33.5167 24.5254 32.9544C24.5254 32.4352 24.1333 32.1636 23.4853 32.071L23.1802 32.0271C22.9 31.9903 22.6754 31.9352 22.6754 31.7371C22.6754 31.5207 22.8872 31.3912 23.2422 31.3912C23.6221 31.3912 23.99 31.5334 24.1703 31.6444L24.4505 31.1253ZM32.0184 31.2491C32.186 30.9895 32.4291 30.8162 32.8026 30.8162C32.9338 30.8162 33.1206 30.8409 33.2638 30.8968L33.0642 31.5023C32.9274 31.4464 32.7905 31.428 32.6593 31.428C32.2359 31.428 32.0242 31.6996 32.0242 32.1884V33.8442H31.3769V30.8905H32.0184V31.2491ZM27.2784 30.8905H26.2198V29.9943H25.5654V30.8905H24.9616V31.4775H25.5654V32.825C25.5654 33.5103 25.8334 33.9185 26.5991 33.9185C26.8799 33.9185 27.2036 33.8322 27.4089 33.69L27.2221 33.1397C27.0289 33.2508 26.8172 33.3066 26.649 33.3066C26.3253 33.3066 26.2198 33.1086 26.2198 32.8122V31.4775H27.2784V30.8905ZM17.5998 31.9903V33.8442H16.9454V32.2004C16.9454 31.6996 16.7336 31.4216 16.2917 31.4216C15.8618 31.4216 15.5631 31.694 15.5631 32.2068V33.8442H14.9087V32.2004C14.9087 31.6996 14.6913 31.4216 14.2614 31.4216C13.8187 31.4216 13.5321 31.694 13.5321 32.2068V33.8442H12.8784V30.8905H13.5264V31.2547C13.7695 30.9088 14.0803 30.8162 14.3983 30.8162C14.8531 30.8162 15.1767 31.0142 15.382 31.3417C15.6565 30.9272 16.0486 30.8098 16.4285 30.8162C17.1514 30.8226 17.5998 31.2922 17.5998 31.9903Z" fill="#231F20"/>
<path d="M34.0464 25.8717H24.2358V8.37842H34.0464V25.8717Z" fill="#FF5F00"/>
<path d="M24.8583 17.1252C24.8583 13.5766 26.5328 10.4156 29.1405 8.37855C27.2336 6.88895 24.8269 5.99986 22.2114 5.99986C16.0194 5.99986 11 10.9808 11 17.1252C11 23.2696 16.0194 28.2505 22.2114 28.2505C24.8269 28.2505 27.2336 27.3614 29.1405 25.8718C26.5328 23.8347 24.8583 20.6738 24.8583 17.1252" fill="#EB001B"/>
<path d="M47.2819 17.1252C47.2819 23.2696 42.2625 28.2505 36.0705 28.2505C33.4549 28.2505 31.0483 27.3614 29.1406 25.8718C31.749 23.8347 33.4236 20.6738 33.4236 17.1252C33.4236 13.5766 31.749 10.4156 29.1406 8.37855C31.0483 6.88895 33.4549 5.99986 36.0705 5.99986C42.2625 5.99986 47.2819 10.9808 47.2819 17.1252" fill="#F79E1B"/>
</svg>
