<svg width="58" height="40" viewBox="0 0 58 40" fill="none" xmlns="http://www.w3.org/2000/svg">
<g id="GooglePay">
<rect id="Rectangle" x="0.5" y="0.5" width="57" height="39" rx="3.5" fill="white" stroke="#F3F3F3"/>
<path id="Shape" fill-rule="evenodd" clip-rule="evenodd" d="M27.9175 24.1182V19.6071V19.6062H30.3579C31.364 19.6068 32.2095 19.2907 32.8946 18.6578C33.5868 18.0571 33.9739 17.1935 33.9542 16.2934C33.9679 15.3982 33.5816 14.541 32.8946 13.9422C32.2156 13.3059 31.3023 12.9587 30.3579 12.9778H26.4404V24.1182H27.9175ZM27.9175 18.2382V14.3494V14.3485H30.3946C30.9466 14.3334 31.4788 14.5487 31.856 14.9396C32.2355 15.2971 32.4496 15.7881 32.4496 16.3009C32.4496 16.8137 32.2355 17.3048 31.856 17.6622C31.4742 18.0449 30.9437 18.254 30.3946 18.2382H27.9175Z" fill="#5F6368"/>
<path id="Shape_2" fill-rule="evenodd" clip-rule="evenodd" d="M39.9431 17.0951C39.3113 16.5297 38.4496 16.2471 37.3578 16.2471C35.9554 16.2471 34.8963 16.7448 34.1807 17.7404L35.4817 18.5342C35.9624 17.8598 36.6153 17.5226 37.4404 17.5226C37.9664 17.5167 38.4755 17.703 38.8661 18.0444C39.2555 18.3564 39.4795 18.8215 39.4762 19.3111V19.6382C38.9086 19.3271 38.1863 19.1715 37.3092 19.1715C36.2817 19.1727 35.4603 19.4062 34.845 19.872C34.2297 20.3377 33.922 20.965 33.922 21.7537C33.9086 22.4719 34.2302 23.1577 34.7973 23.6204C35.3807 24.1182 36.1058 24.3671 36.9725 24.3671C37.9878 24.3671 38.8012 23.9315 39.4129 23.0604H39.4771V24.1182H40.8899V19.4204C40.8905 18.4355 40.5749 17.6604 39.9431 17.0951ZM35.9368 22.7182C35.6274 22.5021 35.4449 22.1544 35.4469 21.7848C35.4469 21.3697 35.6478 21.024 36.0524 20.7395C36.453 20.4592 36.9533 20.3191 37.5533 20.3191C38.3771 20.3191 39.0194 20.4968 39.4799 20.8524C39.4799 21.4533 39.2353 21.9768 38.746 22.4231C38.3053 22.8501 37.7078 23.0905 37.0845 23.0915C36.6689 23.099 36.2635 22.9672 35.9368 22.7182Z" fill="#5F6368"/>
<path id="Path" fill-rule="evenodd" clip-rule="evenodd" d="M49.0001 16.4961L44.068 27.4783H42.5432L44.3735 23.6356L41.1304 16.4961H42.7359L45.0799 21.9716H45.112L47.3918 16.4961H49.0001Z" fill="#5F6368"/>
<path id="Path_2" fill-rule="evenodd" clip-rule="evenodd" d="M21.9486 18.6348C21.9491 18.1987 21.9111 17.7633 21.8348 17.3335H15.6055V19.7984H19.1734C19.0258 20.5939 18.5493 21.2965 17.8541 21.7433V23.3433H19.9835C21.2302 22.2295 21.9486 20.5824 21.9486 18.6348Z" fill="#4285F4"/>
<path id="Path_3" fill-rule="evenodd" clip-rule="evenodd" d="M15.6054 24.889C17.388 24.889 18.8889 24.3219 19.9834 23.3441L17.8541 21.7441C17.2614 22.1334 16.4981 22.3556 15.6054 22.3556C13.8825 22.3556 12.4201 21.2303 11.8972 19.7139H9.70361V21.3628C10.8249 23.5245 13.1084 24.8889 15.6054 24.889Z" fill="#34A853"/>
<path id="Path_4" fill-rule="evenodd" clip-rule="evenodd" d="M11.8972 19.7139C11.6207 18.9193 11.6207 18.0588 11.8972 17.2641V15.6152H9.70361C8.76579 17.4233 8.76579 19.5547 9.70361 21.3628L11.8972 19.7139Z" fill="#FBBC04"/>
<path id="Path_5" fill-rule="evenodd" clip-rule="evenodd" d="M15.6054 14.6221C16.5475 14.6072 17.4577 14.9521 18.1394 15.5821L20.0247 13.7555C18.8292 12.6675 17.2455 12.0702 15.6054 12.0888C13.1084 12.0889 10.8249 13.4533 9.70361 15.615L11.8972 17.2639C12.4201 15.7475 13.8825 14.6221 15.6054 14.6221Z" fill="#EA4335"/>
</g>
</svg>
